<?xml version="1.0" encoding="UTF-8"?>
<svg xmlns="http://www.w3.org/2000/svg" xmlns:xlink="http://www.w3.org/1999/xlink" width="40" height="40" viewBox="0 0 40 40" version="1.1">
<defs>
<radialGradient id="radial0" gradientUnits="userSpaceOnUse" cx="32" cy="622.5" fx="32" fy="622.5" r="31.259" gradientTransform="matrix(0.625,0,0,-0.625,0,408.75)">
<stop offset="0" style="stop-color:rgb(77.254902%,94.509804%,100%);stop-opacity:1;"/>
<stop offset="0.35" style="stop-color:rgb(80.392157%,95.294118%,100%);stop-opacity:1;"/>
<stop offset="0.907" style="stop-color:rgb(89.411765%,98.039216%,100%);stop-opacity:1;"/>
<stop offset="1" style="stop-color:rgb(91.372549%,98.431373%,100%);stop-opacity:1;"/>
</radialGradient>
<linearGradient id="linear0" gradientUnits="userSpaceOnUse" x1="52.984" y1="57.143" x2="11.623" y2="11.526" gradientTransform="matrix(0.625,0,0,0.625,0,0)">
<stop offset="0" style="stop-color:rgb(50.980392%,22.745098%,95.294118%);stop-opacity:1;"/>
<stop offset="0.36" style="stop-color:rgb(29.411765%,40%,88.235294%);stop-opacity:1;"/>
<stop offset="0.906" style="stop-color:rgb(0.392157%,94.509804%,76.862745%);stop-opacity:1;"/>
</linearGradient>
</defs>
<g id="surface1">
<path style=" stroke:none;fill-rule:nonzero;fill:url(#radial0);" d="M 36.25 33.75 C 35.558594 33.75 35 33.191406 35 32.5 C 35 31.808594 35.558594 31.25 36.25 31.25 L 37.8125 31.25 C 39.015625 31.25 40 30.265625 40 29.0625 C 40 27.859375 39.015625 26.875 37.8125 26.875 L 31.25 26.875 C 30.386719 26.875 29.6875 26.175781 29.6875 25.3125 C 29.6875 24.449219 30.386719 23.75 31.25 23.75 L 36.25 23.75 C 37.28125 23.75 38.125 22.90625 38.125 21.875 C 38.125 20.84375 37.28125 20 36.25 20 L 26.25 20 L 26.25 16.25 L 37.5 16.25 C 38.960938 16.25 40.136719 14.984375 39.988281 13.492188 C 39.855469 12.195312 38.6875 11.25 37.382812 11.25 L 36.25 11.25 C 35.558594 11.25 35 10.691406 35 10 C 35 9.308594 35.558594 8.75 36.25 8.75 L 36.472656 8.75 C 37.289062 8.75 38.035156 8.160156 38.117188 7.347656 C 38.210938 6.414062 37.480469 5.625 36.5625 5.625 L 27.8125 5.625 C 27.296875 5.625 26.875 5.203125 26.875 4.6875 C 26.875 4.171875 27.296875 3.75 27.8125 3.75 L 30.222656 3.75 C 31.039062 3.75 31.785156 3.160156 31.867188 2.347656 C 31.960938 1.414062 31.230469 0.625 30.3125 0.625 L 9.777344 0.625 C 8.960938 0.625 8.214844 1.214844 8.132812 2.027344 C 8.039062 2.960938 8.769531 3.75 9.6875 3.75 L 11.875 3.75 C 12.566406 3.75 13.125 4.308594 13.125 5 C 13.125 5.691406 12.566406 6.25 11.875 6.25 L 3.867188 6.25 C 2.5625 6.25 1.394531 7.195312 1.261719 8.492188 C 1.113281 9.984375 2.289062 11.25 3.75 11.25 L 5.3125 11.25 C 6.519531 11.25 7.5 12.230469 7.5 13.4375 C 7.5 14.644531 6.519531 15.625 5.3125 15.625 L 3.242188 15.625 C 1.9375 15.625 0.769531 16.570312 0.636719 17.867188 C 0.488281 19.359375 1.664062 20.625 3.125 20.625 L 13.75 20.625 L 13.75 27.5 L 3.75 27.5 C 2.71875 27.5 1.875 28.34375 1.875 29.375 C 1.875 30.40625 2.71875 31.25 3.75 31.25 C 4.441406 31.25 5 31.808594 5 32.5 C 5 33.191406 4.441406 33.75 3.75 33.75 L 2.617188 33.75 C 1.3125 33.75 0.144531 34.695312 0.0117188 35.992188 C -0.136719 37.484375 1.039062 38.75 2.5 38.75 L 36.132812 38.75 C 37.4375 38.75 38.605469 37.804688 38.738281 36.507812 C 38.886719 35.015625 37.710938 33.75 36.25 33.75 Z M 36.25 33.75 "/>
<path style=" stroke:none;fill-rule:nonzero;fill:url(#linear0);" d="M 31.25 7.5 L 8.75 7.5 C 7.371094 7.5 6.25 8.621094 6.25 10 L 6.25 32.5 C 6.25 33.878906 7.371094 35 8.75 35 L 31.25 35 C 32.628906 35 33.75 33.878906 33.75 32.5 L 33.75 10 C 33.75 8.621094 32.628906 7.5 31.25 7.5 Z M 31.25 7.5 "/>
<path style=" stroke:none;fill-rule:evenodd;fill:rgb(100%,100%,100%);fill-opacity:1;" d="M 25.28125 26.21875 C 24.359375 27.070312 23.757812 27.652344 22.414062 28.339844 C 21.644531 28.726562 20.777344 28.957031 19.960938 28.957031 C 17.511719 28.957031 16.316406 26.699219 16.078125 24.75 C 15.46875 19.75 19.859375 12.878906 22.921875 12.878906 C 23.636719 12.878906 24.277344 13.5 24.394531 14.46875 C 24.578125 15.976562 24.546875 17.042969 22.992188 18.347656 C 22.820312 18.488281 22.769531 18.71875 22.859375 18.855469 C 22.992188 19.058594 23.410156 19.078125 24.253906 18.652344 C 25.914062 17.816406 26.511719 16.523438 26.328125 15.027344 C 26.125 13.371094 24.675781 11.980469 22.734375 11.980469 C 21.792969 11.980469 20.753906 12.261719 19.828125 12.828125 C 15.789062 15.289062 13.183594 20.902344 13.707031 25.1875 C 13.871094 26.542969 14.4375 28.03125 15.503906 29.03125 C 16.222656 29.699219 17.523438 30.519531 19.054688 30.519531 C 20.714844 30.519531 22.117188 29.878906 23.371094 29.085938 C 24.222656 28.539062 24.9375 27.878906 25.539062 27.203125 C 26.527344 26.285156 25.816406 25.71875 25.28125 26.21875 Z M 25.28125 26.21875 "/>
</g>
</svg>
