<?xml version="1.0" encoding="UTF-8"?>
<svg xmlns="http://www.w3.org/2000/svg" xmlns:xlink="http://www.w3.org/1999/xlink" width="40" height="40" viewBox="0 0 40 40" version="1.1">
<g id="surface1">
<path style=" stroke:none;fill-rule:nonzero;fill:rgb(2.352941%,42.745098%,64.705882%);fill-opacity:1;" d="M 6 0 L 34 0 C 37.3125 0 40 2.6875 40 6 L 40 34 C 40 37.3125 37.3125 40 34 40 L 6 40 C 2.6875 40 0 37.3125 0 34 L 0 6 C 0 2.6875 2.6875 0 6 0 Z M 6 0 "/>
<path style=" stroke:none;fill-rule:nonzero;fill:rgb(100%,100%,100%);fill-opacity:1;" d="M 23.125 19.140625 L 26.40625 19.140625 L 26.40625 16.171875 L 23.125 16.171875 Z M 19.21875 19.140625 L 22.5 19.140625 L 22.5 16.171875 L 19.21875 16.171875 Z M 15.390625 19.140625 L 18.671875 19.140625 L 18.671875 16.171875 L 15.390625 16.171875 Z M 11.5625 19.140625 L 14.765625 19.140625 L 14.765625 16.171875 L 11.5625 16.171875 Z M 7.65625 19.140625 L 10.9375 19.140625 L 10.9375 16.171875 L 7.65625 16.171875 Z M 11.5625 15.546875 L 14.765625 15.546875 L 14.765625 12.578125 L 11.5625 12.578125 Z M 15.390625 15.546875 L 18.671875 15.546875 L 18.671875 12.578125 L 15.390625 12.578125 Z M 19.21875 15.546875 L 22.5 15.546875 L 22.5 12.578125 L 19.21875 12.578125 Z M 19.21875 11.953125 L 22.5 11.953125 L 22.5 8.984375 L 19.21875 8.984375 Z M 36.875 17.8125 C 36.875 17.8125 35.46875 16.484375 32.578125 16.953125 C 32.265625 14.6875 29.84375 13.359375 29.84375 13.359375 C 29.84375 13.359375 27.578125 16.09375 29.21875 19.140625 C 28.75 19.375 27.96875 19.6875 26.796875 19.6875 L 5.3125 19.6875 C 4.921875 21.171875 4.921875 31.015625 15.703125 31.015625 C 23.4375 31.015625 29.21875 27.421875 31.953125 20.859375 C 36.015625 21.171875 36.875 17.8125 36.875 17.8125 Z M 36.875 17.8125 "/>
</g>
</svg>
