<?xml version="1.0" encoding="UTF-8"?>
<svg xmlns="http://www.w3.org/2000/svg" xmlns:xlink="http://www.w3.org/1999/xlink" width="40px" height="40px" viewBox="0 0 375 374.999991" version="1.2">
<defs>
<clipPath id="clip1">
  <path d="M 62.351562 55 L 337.601562 55 L 337.601562 302 L 62.351562 302 Z M 62.351562 55 "/>
</clipPath>
</defs>
<g id="surface1">
<path style=" stroke:none;fill-rule:nonzero;fill:rgb(96.078491%,97.648621%,100%);fill-opacity:1;" d="M 344.628906 368.066406 L 31.085938 368.066406 C 18.171875 368.066406 7.648438 357.542969 7.648438 344.628906 L 7.648438 31.085938 C 7.648438 18.171875 18.171875 7.648438 31.085938 7.648438 L 344.628906 7.648438 C 357.542969 7.648438 368.066406 18.171875 368.066406 31.085938 L 368.066406 344.628906 C 368.066406 357.542969 357.542969 368.066406 344.628906 368.066406 Z M 344.628906 368.066406 "/>
<g clip-path="url(#clip1)" clip-rule="nonzero">
<path style=" stroke:none;fill-rule:nonzero;fill:rgb(0%,0%,0%);fill-opacity:1;" d="M 144.636719 274.496094 C 134.148438 266.199219 122.945312 258.316406 115.332031 247.15625 C 99.238281 227.53125 86.824219 204.804688 78.355469 180.875 C 73.242188 165.367188 71.496094 148.691406 64.90625 133.726562 C 58.003906 122.929688 66.066406 111.054688 77.949219 107.605469 C 83.242188 106.570312 92.5625 101.597656 81.316406 105.1875 C 71.230469 112.535156 70.292969 98.464844 80.601562 97.570312 C 87.640625 96.632812 90.238281 90.851562 87.820312 85.695312 C 80.292969 80.765625 106.191406 75.34375 93.15625 67.945312 C 79.578125 53.289062 112.15625 50.46875 104.136719 67.09375 C 102.207031 79.914062 126.902344 64.761719 121.164062 79.550781 C 126.988281 86.632812 142.941406 81.167969 142.539062 91.117188 C 151.058594 91.703125 153.964844 98.828125 161.898438 99.359375 C 170.195312 103.128906 185.117188 106.039062 187.9375 115.3125 C 179.738281 121.808594 160.78125 101.960938 159.886719 119.882812 C 162.347656 146.367188 161.726562 173.664062 171.40625 198.894531 C 176.019531 214.175781 187.136719 226.230469 197.179688 238.105469 C 206.773438 249.800781 219.765625 257.957031 233.035156 264.910156 C 244.6875 270.375 257.242188 274.003906 269.917969 276.292969 C 275.027344 272.351562 284.125 257.742188 292.144531 263.917969 C 292.503906 270.820312 276.234375 278.394531 291.378906 277.636719 C 300.25 274.941406 306.433594 284.492188 313.785156 275.890625 C 320.503906 283.867188 341.835938 270.777344 337.042969 287.136719 C 330.546875 291.300781 321.046875 288.796875 314.542969 294.527344 C 303.828125 289.191406 295.265625 299.320312 283.390625 298.0625 C 270.21875 300.394531 256.769531 301.375 243.414062 301.375 C 221.496094 299.628906 199.089844 298.914062 178.207031 291.292969 C 166.460938 287.839844 154.988281 281.164062 144.636719 274.488281 Z M 163.148438 282.515625 C 174.617188 287.445312 185.871094 292.6875 198.460938 294.304688 C 218.40625 297.039062 239.023438 301.34375 259.058594 297.445312 C 250.003906 293.324219 240.589844 299.0625 231.582031 294.484375 C 220.738281 296.816406 209.132812 293.898438 198.101562 292.46875 C 185.597656 286.910156 172.0625 283.058594 160.316406 275.792969 C 145.707031 270.460938 167.890625 282.652344 171.882812 283.683594 C 181.027344 288.882812 161.796875 280.992188 159.113281 278.839844 C 151.445312 274.539062 150.464844 275.433594 158.347656 279.777344 C 159.910156 280.714844 161.488281 281.707031 163.140625 282.515625 Z M 141.316406 267.050781 C 152.433594 271.171875 141.273438 259.253906 136.164062 259.925781 C 133.925781 256.027344 127.558594 253.515625 132.039062 251.460938 C 123.925781 254.238281 123.574219 240.789062 119.761719 242.675781 C 111.199219 239.980469 116.449219 230.4375 106.269531 224.570312 C 105.332031 218.382812 96.140625 213.003906 93.179688 203.644531 C 91.882812 198.894531 82.828125 185.132812 88.386719 197.902344 C 93.136719 210.226562 101.519531 220.757812 108.464844 231.289062 C 113.882812 241.28125 120.253906 251.769531 130.113281 258 C 133.425781 261.183594 136.609375 266.070312 141.316406 267.050781 Z M 109.273438 231.875 C 109.632812 230.214844 111.285156 235.507812 109.273438 231.875 Z M 154.628906 271.984375 C 157.089844 270.90625 151.09375 270.640625 154.628906 271.984375 Z M 160.679688 274.21875 C 160.050781 271.171875 157.898438 275.878906 160.679688 274.21875 Z M 168.25 277.359375 C 171.839844 273.910156 162.691406 275.210938 168.25 277.359375 Z M 181.210938 284.578125 C 183.402344 281.351562 174.171875 283.367188 181.210938 284.578125 Z M 156.332031 267.234375 C 161.890625 263.601562 149.070312 267.191406 156.332031 267.234375 Z M 161.976562 270.054688 C 161.839844 268.128906 159.964844 270.90625 161.976562 270.054688 Z M 190.304688 287.753906 C 194.875 290.621094 216.929688 294.027344 203.125 288.917969 C 200.835938 289.40625 177.535156 282.324219 190.304688 287.753906 Z M 145.351562 252.707031 C 144.90625 250.78125 138.269531 250.554688 145.351562 252.707031 Z M 158.527344 260.375 C 161.976562 258 151.402344 258.53125 158.527344 260.375 Z M 169.644531 267.191406 C 174.574219 265.347656 161.625 265.304688 169.644531 267.191406 Z M 139.972656 246.839844 C 145.308594 250.960938 161.53125 247.382812 148.175781 244.421875 C 142.082031 241.152344 128.367188 238.957031 137.6875 246.347656 Z M 177.128906 269.566406 C 179.367188 265.753906 167.8125 267.371094 177.128906 269.566406 Z M 165.832031 260.554688 C 178.921875 264.273438 154.851562 252.3125 162.605469 259.210938 L 164.351562 259.980469 Z M 188.507812 273.644531 C 200.871094 273.78125 177.300781 271.9375 188.507812 273.644531 Z M 135.226562 239.671875 C 134.734375 237.382812 132.179688 239.894531 135.226562 239.671875 Z M 209.441406 285.378906 C 209.75 281.214844 205.40625 288.519531 209.441406 285.378906 Z M 156.332031 252.621094 C 155.566406 250.425781 152.476562 252.535156 156.332031 252.621094 Z M 136.386719 238.234375 C 143.46875 237.828125 126.664062 235.09375 136.386719 238.234375 Z M 112.722656 222.953125 C 111.871094 219.542969 105.011719 216.859375 112.722656 222.953125 Z M 174.796875 262.386719 C 173.5 260.863281 174.171875 262.699219 174.796875 262.386719 Z M 213.382812 286.050781 C 213.296875 283.8125 211.316406 286.902344 213.382812 286.050781 Z M 171.390625 258.851562 C 172.0625 255.890625 165.296875 257.957031 171.390625 258.851562 Z M 142.617188 240.566406 C 147.855469 240.023438 134.148438 237.03125 142.617188 240.566406 Z M 191.285156 270.820312 C 199.484375 267.550781 183.214844 269.203125 191.285156 270.820312 Z M 165.96875 253.652344 C 175.46875 254.867188 154.671875 247.199219 163.863281 252.984375 Z M 198.953125 273.953125 C 207.824219 268.617188 204.914062 286.371094 214.011719 275.433594 C 222.976562 268.894531 206.257812 283.546875 217.324219 276.59375 C 225.300781 271.257812 237.132812 279.148438 244.574219 281.707031 C 249.953125 281.4375 255.195312 286.371094 260.667969 283.367188 C 271.285156 280.5 239.964844 279.148438 248.164062 274.089844 C 238.484375 276.914062 231.316406 270.726562 226.566406 264.496094 C 215.671875 261.984375 203.125 256.425781 197.703125 246.796875 C 195.46875 243.207031 200.886719 247.339844 195.777344 241.417969 C 189.238281 235.59375 185.957031 228.957031 181.570312 221.875 C 176.328125 219.097656 175.703125 210.855469 175.160156 221.609375 C 175.203125 214.792969 168.792969 210.226562 167.269531 212.152344 C 167.226562 205.613281 174.085938 208.882812 169.28125 204.039062 C 168.25 197.222656 164.84375 190.140625 163.820312 182.484375 C 162.253906 178.808594 163.59375 170.917969 158.398438 179.257812 C 156.511719 188.085938 157.769531 168.414062 160.730469 174.910156 C 164.585938 168.277344 159.34375 169.042969 159.113281 169.980469 C 161.625 164.378906 160.730469 156.445312 158.441406 159.449219 C 159.78125 153.527344 160.589844 137.625 156.425781 140.449219 C 158.941406 134.261719 161.175781 112.078125 150.335938 120.546875 C 145.894531 120.589844 138.28125 122.164062 134.691406 123.953125 C 145.988281 130.183594 133.53125 126.191406 128.953125 125.210938 C 128.367188 130.949219 123.796875 128.480469 118.109375 128.523438 C 127.203125 129.640625 113.667969 137.796875 108.429688 134.667969 C 101.664062 137.894531 114.296875 145.964844 108.566406 148.46875 C 109.28125 152.238281 98.214844 147.125 99.066406 155.816406 C 92.476562 153.039062 98.171875 166.167969 101.441406 161.738281 C 112.644531 164.738281 109.332031 171.640625 109.597656 178.234375 C 107.808594 182.042969 100.632812 169.222656 108.035156 169.808594 C 102.207031 160.351562 101.578125 166.402344 96.691406 170.796875 C 95.574219 171.109375 109.109375 177.070312 100.632812 180.03125 C 108.078125 181.148438 108.300781 187.699219 109.78125 191.820312 C 114.261719 196.527344 113.367188 186.664062 118.746094 192.308594 C 115.339844 187.292969 100.769531 178.191406 112.472656 181.105469 C 112.429688 176.089844 110.363281 172.011719 113.953125 172.140625 C 117.542969 165.6875 110.234375 188.050781 118.253906 179.851562 C 120.492188 178.859375 121.035156 173.398438 125.070312 180.339844 C 130.851562 186.082031 127.136719 190.203125 118.980469 184.953125 C 120.414062 189.925781 129.914062 191.714844 128.125 199.476562 C 130.011719 206.335938 132.652344 203.78125 134.984375 203.417969 C 136.773438 210.054688 137.804688 205.164062 137.902344 201.980469 C 146.195312 203.773438 144.214844 208.660156 146.816406 212.109375 C 152.503906 214.664062 138.65625 194.632812 148.476562 206.0625 C 158.742188 215.378906 152.332031 219.234375 143.054688 217.753906 C 148.921875 217.308594 150.808594 225.6875 158.113281 225.371094 C 164.789062 228.554688 169.316406 240.738281 157.804688 235.679688 C 153.8125 232.089844 139.699219 227.605469 151.265625 234.464844 C 161.933594 239.394531 170.359375 242.355469 180.667969 248.535156 C 187.972656 253.773438 191.199219 259.832031 193.980469 260.992188 C 187.792969 263.953125 175.332031 258.617188 184.566406 257 C 178.824219 255.96875 172.328125 253.058594 177.84375 260.226562 C 182.550781 264.167969 194.46875 263.722656 196.621094 264.167969 C 194.777344 268.160156 191.691406 268.472656 196.707031 268.78125 C 191.105469 271.785156 198.496094 272.230469 198.996094 273.9375 Z M 187.566406 241.726562 C 184.160156 238.140625 183.265625 231.503906 186.941406 237.289062 C 188.824219 238.054688 192.988281 248.179688 187.566406 241.726562 Z M 224.722656 265.304688 C 226.832031 265.21875 224.765625 266.921875 224.722656 265.304688 Z M 182.191406 232.992188 C 182.050781 227.660156 183.402344 237.160156 182.191406 232.992188 Z M 178.472656 228.0625 C 174.214844 219.820312 183.894531 230.394531 178.472656 228.0625 Z M 133.746094 197.136719 C 136.257812 196.464844 134.957031 201.441406 133.746094 197.136719 Z M 169.378906 216.457031 C 170.898438 210.671875 171.167969 221.34375 169.378906 216.457031 Z M 144.183594 198.980469 C 142.433594 195.796875 147.898438 201.980469 144.183594 198.980469 Z M 165.789062 205.878906 C 161.753906 196.828125 168.65625 200.949219 166.683594 207.402344 Z M 128.546875 181.046875 C 126.757812 178.085938 123.753906 169.351562 124.734375 166.703125 C 125.585938 171.003906 133.925781 185.347656 128.8125 172.621094 C 123.167969 161.953125 135.578125 176.074219 136.886719 178.765625 C 137.46875 181.40625 133.390625 178.050781 136.121094 184.230469 C 131.101562 177.148438 133.160156 188.128906 128.546875 181.046875 Z M 117.023438 173.113281 C 117.515625 166.210938 119.667969 177.863281 117.023438 173.113281 Z M 122.222656 174.910156 C 124.683594 169.671875 126.386719 182.171875 122.222656 174.910156 Z M 109.761719 165.273438 C 105.460938 161.015625 102.371094 157.074219 109.945312 162.632812 C 112.902344 162.71875 103.488281 153.71875 110.65625 159.765625 C 118.230469 161.152344 114.375 172.183594 109.761719 165.28125 Z M 116.3125 165.09375 C 118.824219 162.632812 117.609375 167.511719 116.3125 165.09375 Z M 120.347656 166.390625 C 116.578125 159.308594 124.914062 169.351562 120.347656 166.390625 Z M 112.320312 158.734375 C 99.859375 147.667969 128.003906 164.558594 114.332031 160.800781 Z M 148.039062 179.480469 C 142.617188 176.253906 146.601562 156.710938 148.441406 170.066406 C 153.683594 168.363281 148.132812 176.96875 152.03125 176.882812 C 151.445312 182.300781 149.699219 184.273438 148.039062 179.480469 Z M 161.21875 187.277344 C 161.761719 181.40625 162.339844 191.3125 161.21875 187.277344 Z M 158.929688 184.996094 C 159.515625 182.484375 158.972656 187.957031 158.929688 184.996094 Z M 114.789062 155.101562 C 106.769531 144.035156 138.046875 166.261719 119.898438 157.882812 C 118.015625 157.390625 115.734375 157.210938 114.789062 155.101562 Z M 140.199219 168.585938 C 139.433594 159.265625 141.902344 170.109375 140.199219 168.585938 Z M 159.515625 180.960938 C 160.996094 175.667969 159.601562 184.453125 159.515625 180.960938 Z M 115.992188 150.886719 C 120.742188 149.855469 135.714844 159.222656 121.957031 153.578125 C 120.433594 151.875 117.207031 152.640625 115.992188 150.886719 Z M 156.824219 171.238281 C 157.363281 161.738281 159.6875 165.550781 156.867188 172.578125 Z M 119.539062 147.574219 C 121.464844 144.75 114.382812 134.710938 120.570312 143.984375 C 123.210938 146.09375 128.28125 147.523438 123.796875 148.425781 C 130.835938 154.613281 122.09375 150.085938 119.539062 147.574219 Z M 154.808594 168.277344 C 156.152344 157.433594 156.023438 174.59375 154.808594 168.277344 Z M 115.503906 137.574219 C 116.980469 136.945312 116.269531 139.546875 115.503906 137.574219 Z M 124.691406 143.046875 C 127.066406 138.074219 129.039062 148.605469 124.691406 143.046875 Z M 150.636719 157.519531 C 150.636719 155.59375 151.125 160.257812 150.636719 157.519531 Z M 149.164062 154.15625 C 145.578125 145.285156 152.527344 158.863281 149.164062 154.15625 Z M 146.917969 148.332031 C 146.332031 144.65625 149.027344 152.941406 146.917969 148.332031 Z M 150.550781 142.460938 C 148.089844 138.117188 153.691406 123.28125 154.265625 132.472656 C 151.667969 139.640625 153.554688 143.675781 155.34375 134.039062 C 158.707031 126.464844 154.628906 149.011719 150.550781 142.460938 Z M 154.222656 120.40625 C 155.300781 119.066406 154.492188 121.972656 154.222656 120.40625 Z M 148.089844 242.175781 C 146.609375 240.875 148.269531 242.984375 148.089844 242.175781 Z M 160.816406 248.585938 C 167.855469 250.425781 167.855469 247.511719 161.445312 246.660156 C 157.992188 243.429688 147.152344 240.023438 156.875 246.253906 C 157.503906 247.871094 159.566406 247.820312 160.773438 248.585938 Z M 135.671875 231.917969 C 139.570312 234.835938 150.324219 240.160156 141.1875 232.992188 C 144.277344 229.457031 135.320312 227.53125 138.269531 225.15625 C 130.742188 220.492188 132.308594 220.9375 137.644531 221.074219 C 128.496094 216.996094 138.941406 217.308594 138.453125 215.207031 C 134.914062 214.535156 121.019531 209.019531 129.21875 215.65625 C 120.878906 211.4375 127.203125 217.273438 124.691406 216.644531 C 116.171875 214.3125 132.265625 223.140625 123.351562 220.945312 C 128.238281 224.800781 136.523438 230.851562 125.414062 225.027344 C 123.933594 227.132812 133.347656 230.316406 135.679688 231.925781 Z M 148.984375 239.578125 C 165.160156 244.773438 141.050781 233.164062 148.984375 239.578125 Z M 217.101562 280.855469 C 217.324219 277.628906 214.90625 283.589844 217.101562 280.855469 Z M 224.136719 283.8125 C 227.855469 280.183594 224.277344 289.554688 230.324219 282.917969 C 230.367188 278.167969 230.144531 275.347656 223.382812 281.128906 C 221.496094 282.160156 220.6875 286.550781 224.148438 283.824219 Z M 112.902344 213.941406 C 111.785156 209.460938 104.882812 209.460938 112.902344 213.941406 Z M 120.390625 218.875 C 117.609375 214.261719 110.484375 214.707031 120.390625 218.875 Z M 162.964844 244.558594 C 167.132812 248.234375 182.0625 247.253906 168.035156 245.007812 C 165.925781 241.917969 154.816406 242.675781 162.964844 244.558594 Z M 221.453125 280.671875 C 227.863281 275.296875 215.265625 283.046875 221.453125 280.671875 Z M 234.757812 289.777344 C 234.800781 288.074219 232.019531 290.542969 234.757812 289.777344 Z M 234.757812 287.402344 C 241.839844 279.875 227.898438 287.851562 234.757812 287.402344 Z M 94.53125 198.574219 C 88.484375 189.96875 90.761719 186.070312 84.9375 179.074219 C 83.863281 173.65625 74.992188 161.460938 80.367188 174.410156 C 85.300781 181.941406 86.777344 193.636719 94.53125 198.566406 Z M 232.5625 284.976562 C 245.609375 276.59375 227.226562 281.34375 232.5625 284.976562 Z M 242.519531 288.882812 C 249.058594 283.324219 238.398438 287.722656 242.519531 288.882812 Z M 110.710938 204.441406 C 112.59375 201.664062 105.917969 204.082031 110.710938 204.441406 Z M 240.410156 286.230469 C 246.726562 282.152344 238.972656 282.78125 239.292969 286.59375 Z M 154.714844 232.183594 C 154.492188 229.449219 151.351562 232.410156 154.714844 232.183594 Z M 160.007812 235.230469 C 158.304688 231.824219 157.40625 235.773438 160.007812 235.230469 Z M 250.582031 289.011719 C 258.652344 283.144531 245.652344 287.851562 248.878906 290.085938 Z M 247.492188 287.488281 C 254.082031 281.972656 240.496094 289.949219 247.492188 287.488281 Z M 263.308594 298.019531 C 267.75 295.0625 257.929688 297.082031 263.308594 298.019531 Z M 114.789062 202.429688 C 120.707031 203.773438 138.496094 217.039062 128.003906 203.367188 C 122.628906 201.75 125.855469 188.617188 120.339844 190.949219 C 124.011719 197.09375 123.382812 199.734375 115.675781 195.839844 C 105.949219 191.132812 110.210938 198.214844 112.085938 200.140625 C 109.53125 200.726562 115.535156 202.378906 114.78125 202.429688 Z M 87.761719 181.097656 C 88.792969 176.710938 77.941406 156.945312 82.605469 171.195312 C 84.308594 174.152344 84.128906 179.839844 87.761719 181.097656 Z M 137.332031 211.707031 C 134.285156 209.148438 137.195312 211.300781 137.332031 211.707031 Z M 144.863281 213.453125 C 144.863281 208.789062 136.566406 211.566406 144.863281 213.453125 Z M 210.070312 254.550781 C 208.8125 251.363281 205.140625 254.464844 210.070312 254.550781 Z M 213.203125 256.839844 C 212.753906 255.046875 211.410156 257.148438 213.203125 256.839844 Z M 239.058594 273.101562 C 241.519531 271.257812 235.96875 272.878906 239.058594 273.101562 Z M 101.253906 184.546875 C 108.378906 181.769531 93.636719 182.578125 101.253906 184.546875 Z M 204.332031 249.480469 C 204.246094 244.867188 199.804688 250.640625 204.332031 249.480469 Z M 98.429688 178 C 103 176.433594 94.214844 176.96875 98.429688 178 Z M 111.691406 184.410156 C 111.605469 182.886719 110.304688 184.996094 111.691406 184.410156 Z M 273.351562 283.546875 C 279.21875 282.386719 292.625 286.550781 294.777344 281.980469 C 287.652344 281.84375 270.078125 276.964844 269.269531 283.144531 L 270.835938 283.410156 Z M 115.90625 185.488281 C 115.992188 180.824219 112.277344 185.304688 115.90625 185.488281 Z M 81.039062 161.28125 C 79.472656 152.410156 75.035156 159.9375 81.039062 161.28125 Z M 89.378906 163.390625 C 89.464844 160.523438 81.761719 160.789062 89.378906 163.390625 Z M 94.128906 165.722656 C 92.742188 164.601562 93.050781 167.105469 94.128906 165.722656 Z M 123.96875 184.859375 C 125.40625 183.601562 120.65625 183.921875 123.96875 184.859375 Z M 90.945312 160.480469 C 90.136719 153.761719 81.304688 159.449219 90.945312 160.480469 Z M 73.914062 149.40625 C 73.691406 146.316406 72.253906 150.566406 73.914062 149.40625 Z M 76.417969 147.480469 C 76.015625 143.804688 74.269531 147.925781 76.417969 147.480469 Z M 90.453125 155.859375 C 96.375 153.527344 79.65625 151.015625 89.242188 155.414062 Z M 277.832031 271.578125 C 281.644531 268.128906 273.039062 270.503906 277.832031 271.578125 Z M 300.507812 283.324219 C 301.988281 278.839844 296.652344 283.910156 300.507812 283.324219 Z M 91.882812 148.511719 C 92.511719 144.164062 87.175781 149.363281 91.882812 148.511719 Z M 71.945312 135.15625 C 70.867188 129.011719 71.050781 118.257812 81.261719 121.886719 C 67.589844 124.625 90.71875 138.875 87.804688 127.628906 C 93.542969 127.894531 99.050781 124.21875 96.003906 129.820312 C 107.34375 128.566406 115.183594 118.753906 126.121094 120.097656 C 134.640625 118.980469 143.957031 118.128906 153.148438 114.71875 C 160.679688 114.136719 167.941406 106.027344 163.820312 101.226562 C 153.511719 100.332031 142.753906 101.632812 131.371094 103.871094 C 118.773438 106.511719 107.34375 111.484375 94.617188 113.636719 C 82.203125 115.296875 97.078125 118.203125 93.542969 118.875 C 87.089844 121.113281 101.253906 122.644531 92.691406 124.96875 C 87.449219 123.980469 81.933594 122.144531 84.171875 116.585938 C 72.296875 118.109375 61.851562 123.082031 71.265625 135.140625 Z M 100.582031 120.589844 C 103.359375 110.324219 115.503906 129.011719 105.152344 121.929688 C 103.894531 121.035156 101.878906 120.269531 100.582031 120.589844 Z M 101.113281 115.613281 C 105.109375 112.65625 103.222656 117.277344 101.113281 115.613281 Z M 106.226562 115.710938 C 106.585938 111.003906 117.878906 118.222656 108.066406 117.414062 Z M 113.171875 112.878906 C 115.726562 109.917969 113.9375 115.570312 113.171875 112.878906 Z M 114.96875 111.71875 C 119.226562 106.605469 139.035156 108.445312 124.511719 111.226562 C 120.65625 108.308594 117.652344 112.929688 114.96875 111.71875 Z M 140.828125 107.722656 C 140.15625 93.785156 153.648438 112.699219 140.828125 107.722656 Z M 148.132812 107.679688 C 150.824219 100.640625 158.527344 104.859375 149.386719 106.246094 C 149.570312 107.011719 149.121094 109.875 148.132812 107.679688 Z M 88.972656 144.921875 C 96.992188 139.992188 80.507812 140.664062 88.972656 144.921875 Z M 94.886719 146.582031 C 97.707031 143.582031 88.792969 145.328125 94.886719 146.582031 Z M 77.453125 134.167969 C 82.019531 130.671875 72.074219 132.824219 77.453125 134.167969 Z M 313.863281 282.066406 C 314 277.988281 310.367188 283.910156 313.863281 282.066406 Z M 289.84375 265.667969 C 290.515625 260.960938 286.757812 266.070312 289.84375 265.667969 Z M 320.453125 283.632812 C 326.863281 283.632812 339.8125 281.664062 325.917969 281.664062 C 323.722656 282.023438 313.191406 281.929688 320.453125 283.632812 Z M 100.082031 143.675781 C 105.28125 143.3125 108.195312 137.988281 99.09375 138.296875 C 84.972656 136.816406 111.507812 143.089844 97.304688 141.300781 C 95.375 142.558594 99.996094 144.035156 100.082031 143.675781 Z M 104.660156 146 C 104.117188 142.632812 103.042969 147.746094 104.660156 146 Z M 110.039062 131.566406 C 112.328125 128.789062 106.949219 130.800781 110.039062 131.566406 Z M 92.828125 102.800781 C 102.105469 99.660156 114.746094 96.125 119.089844 104.324219 C 114.652344 98.992188 117.300781 93.75 121.507812 101.546875 C 127.429688 109.480469 130.378906 97.957031 126.523438 95.316406 C 130.914062 100.78125 135.894531 103.335938 129.484375 95.625 C 136.480469 87.246094 115.460938 96.746094 110.65625 96.660156 C 108.367188 97.691406 86.910156 102.121094 92.863281 102.800781 Z M 98.25 92.441406 C 103.542969 88.449219 116.492188 94.773438 108.152344 88.449219 C 107.386719 87.777344 89.953125 93.242188 98.25 92.441406 Z M 117.472656 93.207031 C 123.660156 93.386719 114.832031 84.964844 122.179688 88.769531 C 120.964844 84.828125 113.617188 84.0625 109.988281 82.496094 C 107.972656 86.125 114.152344 93.25 117.472656 93.207031 Z M 101.65625 75.773438 C 103.765625 72.910156 97.886719 77.253906 101.65625 75.773438 Z M 109.496094 77.660156 C 119.398438 76.359375 106.941406 73.398438 107.484375 77.574219 Z M 94.84375 66.179688 C 87.847656 57.03125 107.972656 67.746094 100.890625 58.160156 C 94.886719 53.410156 89.144531 63.539062 94.84375 66.179688 Z M 184.609375 114.539062 C 187.835938 108.851562 171.339844 106.871094 182.457031 112.527344 C 183.488281 112.886719 183.222656 114.945312 184.609375 114.539062 Z M 184.609375 114.539062 "/>
</g>
</g>
</svg>
